<svg id="Layer_1" data-name="Layer 1" xmlns="http://www.w3.org/2000/svg" xmlns:xlink="http://www.w3.org/1999/xlink" viewBox="0 0 290.11 136.05"><defs><linearGradient id="linear-gradient" x1="645.66" y1="514.03" x2="645.66" y2="377.98" gradientUnits="userSpaceOnUse"><stop offset="0" stop-color="#533325"/><stop offset="1"/></linearGradient><linearGradient id="linear-gradient-2" x1="655.05" y1="489.99" x2="655.05" y2="403.44" xlink:href="#linear-gradient"/></defs><path d="M750.77,431.35c-9.75-26.1-33.13-41.13-60.37-24-24.77-44.3-87-34.81-107.45,4.44-14.39-11.45-38,6.44-38.74,25.84-13.93,8.72-29,9.41-43.61,6.24,2.76,8.33,11.08,23.76,18.42,28.34,8.36,5.22,21,6.73,35.3,1.43,7.11,15.29,20.32,26.41,48.61,17.48a36.51,36.51,0,0,1,.41-9.06,23.94,23.94,0,0,1-6.3.87,23.66,23.66,0,0,1-9.35-1.91,24,24,0,0,1-11.9-11.52,15.07,15.07,0,0,1-3.09.33,17.77,17.77,0,0,1-6.84-1.42,21.12,21.12,0,0,1-11.81-13.05,16.84,16.84,0,0,1-3.25,1.73,35.2,35.2,0,0,1-22.49,1.34,2.85,2.85,0,1,1,1.51-5.49,29.51,29.51,0,0,0,18.83-1.12c1.86-.76,3.87-2.07,3.93-3.47a2.72,2.72,0,0,1,.61-1.6,20.76,20.76,0,0,1,36.14-11.39c4.62-10.19,10-18.15,16.27-24.22,9.24-8.9,20.92-13.74,32-13.33s21.54,6.63,26.61,15.56A23,23,0,0,1,691,425.61a24.26,24.26,0,0,1,8.75-7.47,24.67,24.67,0,0,1,21.77.1c8.61,4.39,13.54,11.41,19.08,20.13,4.41,6.94,13,14.19,22.79,11.81a2.85,2.85,0,0,1,2.18,5.19c-9.71,6-25.26,8.14-35.55,2.06-4.39,7.45-13.3,14.16-21.4,15.73a28.59,28.59,0,0,1-21.3-4.53c-1.69,8.43-6.72,18-15.48,23.35a25.31,25.31,0,0,1-13.21,3.71,31.61,31.61,0,0,1-13.36-3.21,19.46,19.46,0,0,1-3.72,1.51c-5,1.42-10.07.74-13.67-1.82-4.54-3.22-6.27-9.34-3.93-13.92a2.84,2.84,0,1,1,5.07,2.58c-1,2.06-.06,5.12,2.15,6.69s5.5,1.94,8.81,1c5.42-1.55,9.57-6.47,9.66-11.45a13.71,13.71,0,0,0-4.53-9.75c-6.86-6.54-19.35-6.62-27.26-.18-6.36,5.16-9.81,13.88-9.33,22.76,11.29,21.72,35.62,24.77,49.82,24.05,9.11-.46,31.82-5.73,38.08-31.09,13,11.15,31.32,3.19,40.41-11.39,7.89,7.59,39.94,12.58,53.87-34.41C777.24,443.69,753.77,439.39,750.77,431.35Z" transform="translate(-500.6 -377.98)" style="fill:url(#linear-gradient)"/><path d="M581,467.11a17.82,17.82,0,0,0,23.41,8.54,2.89,2.89,0,0,1,.8-.22,30.63,30.63,0,0,1,9.07-12.72c10.2-8.29,25.8-8.08,34.79.48a19.2,19.2,0,0,1,6.29,14,17.24,17.24,0,0,1-4.81,11.32c6.7,2.39,12.87,2,18.37-1.38,8.53-5.16,13.18-16,13.37-24.11a2.84,2.84,0,0,1,4.9-1.9,22.78,22.78,0,0,0,20.37,6.48c7.3-1.42,16.07-8.63,18.77-15.43A2.83,2.83,0,0,1,730.8,451c5.06,4.29,13.08,5.17,20.56,3.75-6.71-2.6-12.18-8-15.55-13.34-5.07-8-9.54-14.38-16.87-18.11a18.46,18.46,0,0,0-25.7,10c0,.22.08.44.09.66a2.82,2.82,0,0,1-1,2.36c0,.08,0,.16-.05.23a15.09,15.09,0,0,0,3.23,12.69c3,3.21,7.89,4.42,11.49,2.81a8.17,8.17,0,0,0,4.12-4.52,6.71,6.71,0,0,0,0-5.17,6.13,6.13,0,0,0-4.43-3.23,5.06,5.06,0,0,0-4.53,1,2.85,2.85,0,0,1-3.9-4.15,10.68,10.68,0,0,1,9.54-2.48,11.72,11.72,0,0,1,8.51,6.48,12.33,12.33,0,0,1,.13,9.53,13.79,13.79,0,0,1-7.13,7.7c-5.83,2.6-13.4.86-18-4.16a20.59,20.59,0,0,1-4.64-17.54,23.93,23.93,0,0,1,.72-2.89,17.38,17.38,0,0,0-20.93-14c2,6.75,1,13.94-2.71,19-4.63,6.3-13.37,8.75-19.93,5.57a12.26,12.26,0,0,1-7-9.33,9.76,9.76,0,0,1,6.47-10.39A2.85,2.85,0,1,1,645,429a4.09,4.09,0,0,0-2.46,4.26,6.65,6.65,0,0,0,3.84,4.88c4.09,2,9.85.26,12.84-3.82,2.87-3.92,3.48-9.67,1.57-15-.09-.26-.2-.51-.31-.77a3,3,0,0,1-.4-.67,2.67,2.67,0,0,1-.16-.6c-3.82-7.88-12.73-13.46-22.47-13.83-9.5-.37-19.72,3.91-27.85,11.75-6.66,6.41-12.22,15.25-17,27A2.83,2.83,0,0,1,590,444a2.8,2.8,0,0,1-2.66-1.57A15.11,15.11,0,1,0,568,463.11a10.39,10.39,0,0,0,8.47.14c2.36-1.17,3.82-3.81,3.33-6a3.93,3.93,0,0,0-2.12-2.51,2.88,2.88,0,0,0-2.43-.17,2.85,2.85,0,1,1-2.44-5.15,8.49,8.49,0,0,1,7.37.2,9.57,9.57,0,0,1,5.18,6.4A11.35,11.35,0,0,1,581,467.11Z" transform="translate(-500.6 -377.98)" style="fill:url(#linear-gradient-2)"/></svg>