<svg id="Layer_1" data-name="Layer 1" xmlns="http://www.w3.org/2000/svg" xmlns:xlink="http://www.w3.org/1999/xlink" viewBox="0 0 287.65 134.9"><defs><linearGradient id="linear-gradient" x1="683.5" y1="444.84" x2="683.5" y2="309.94" gradientUnits="userSpaceOnUse"><stop offset="0" stop-color="#533325"/><stop offset="1"/></linearGradient><linearGradient id="linear-gradient-2" x1="674.19" y1="419.6" x2="674.19" y2="333.78" xlink:href="#linear-gradient"/></defs><path d="M579.28,391.92c9.67,25.88,32.84,40.78,59.86,23.84,24.56,43.92,86.26,34.51,106.53-4.4,14.27,11.35,37.69-6.39,38.41-25.62,13.82-8.65,28.78-9.34,43.25-6.2-2.74-8.26-11-23.55-18.27-28.1-8.29-5.17-20.83-6.66-35-1.41-7-15.16-20.15-26.19-48.2-17.33a35.41,35.41,0,0,1-.41,9,24,24,0,0,1,6.25-.86,23.4,23.4,0,0,1,9.27,1.89,23.82,23.82,0,0,1,11.81,11.42,14.71,14.71,0,0,1,3.06-.32,17.82,17.82,0,0,1,6.78,1.4,20.94,20.94,0,0,1,11.71,12.94,17.09,17.09,0,0,1,3.22-1.71,34.89,34.89,0,0,1,22.3-1.33,2.82,2.82,0,0,1-1.5,5.44,29.16,29.16,0,0,0-18.67,1.12c-1.84.75-3.83,2.05-3.89,3.43a2.84,2.84,0,0,1-.6,1.59A20.59,20.59,0,0,1,739.35,388c-4.59,10.11-9.89,18-16.13,24-9.16,8.83-20.75,13.63-31.75,13.23s-21.36-6.58-26.39-15.43a22.79,22.79,0,0,1-26.55-12.18,24,24,0,0,1-8.67,7.41,24.48,24.48,0,0,1-21.59-.1c-8.54-4.36-13.42-11.31-18.92-20-4.37-6.88-12.92-14.07-22.6-11.71a2.82,2.82,0,0,1-2.16-5.14c9.63-6,25-8.07,35.25-2.05,4.35-7.38,13.19-14,21.22-15.6A28.4,28.4,0,0,1,642.18,355c1.67-8.35,6.66-17.88,15.35-23.14a25,25,0,0,1,13.1-3.69,31.3,31.3,0,0,1,13.24,3.19,19,19,0,0,1,3.7-1.5c4.91-1.4,10-.73,13.55,1.81,4.5,3.19,6.21,9.26,3.89,13.8a2.82,2.82,0,1,1-5-2.56c1-2,.07-5.08-2.13-6.64s-5.45-1.91-8.73-1c-5.38,1.54-9.49,6.42-9.58,11.36a13.59,13.59,0,0,0,4.49,9.66c6.81,6.49,19.19,6.57,27,.19,6.29-5.13,9.71-13.77,9.24-22.57C709.12,312.34,685,309.32,670.91,310c-9,.46-31.55,5.68-37.76,30.83-12.89-11.06-31-3.16-40.06,11.29-7.83-7.53-39.6-12.47-53.42,34.12C553,379.68,576.3,383.94,579.28,391.92Z" transform="translate(-539.67 -309.94)" style="fill:url(#linear-gradient)"/><path d="M747.63,356.46A17.67,17.67,0,0,0,724.41,348a2.45,2.45,0,0,1-.78.21,30.56,30.56,0,0,1-9,12.62c-10.11,8.22-25.58,8-34.49-.48a19,19,0,0,1-6.24-13.85,17.1,17.1,0,0,1,4.77-11.22c-6.65-2.38-12.77-1.94-18.22,1.36-8.46,5.12-13.07,15.9-13.25,23.91a2.83,2.83,0,0,1-4.87,1.89A22.58,22.58,0,0,0,622.14,356c-7.24,1.41-15.93,8.56-18.61,15.31a2.82,2.82,0,0,1-4.45,1.11c-5-4.26-13-5.13-20.39-3.72,6.66,2.58,12.08,8,15.42,13.23,5,7.91,9.45,14.25,16.73,17.95a18.3,18.3,0,0,0,25.48-9.9c0-.22-.08-.43-.09-.65a2.8,2.8,0,0,1,1-2.34c0-.08,0-.15,0-.23a14.92,14.92,0,0,0-3.2-12.58c-2.92-3.18-7.82-4.38-11.39-2.79a8.09,8.09,0,0,0-4.09,4.49,6.63,6.63,0,0,0,0,5.12,6.08,6.08,0,0,0,4.39,3.21,5,5,0,0,0,4.49-1,2.83,2.83,0,0,1,3.87,4.12,10.6,10.6,0,0,1-9.46,2.46,11.64,11.64,0,0,1-8.44-6.43,12.26,12.26,0,0,1-.12-9.45,13.63,13.63,0,0,1,7.06-7.63c5.79-2.58,13.3-.85,17.86,4.12a20.4,20.4,0,0,1,4.6,17.4,23.42,23.42,0,0,1-.71,2.86,17.24,17.24,0,0,0,20.75,13.87c-2-6.7-1-13.82,2.69-18.88,4.59-6.25,13.26-8.68,19.76-5.53a12.16,12.16,0,0,1,6.94,9.25,9.66,9.66,0,0,1-6.41,10.3,2.83,2.83,0,0,1-1.63-5.41,4.07,4.07,0,0,0,2.44-4.23,6.6,6.6,0,0,0-3.81-4.83c-4.05-2-9.76-.26-12.73,3.79-2.85,3.88-3.45,9.59-1.56,14.89.09.26.21.51.31.76a2.79,2.79,0,0,1,.56,1.27c3.79,7.8,12.62,13.34,22.28,13.7,9.42.37,19.55-3.88,27.61-11.64,6.61-6.36,12.11-15.13,16.84-26.8a2.84,2.84,0,0,1,2.51-1.77,2.77,2.77,0,0,1,2.63,1.57,15,15,0,1,0,19.17-20.5,10.28,10.28,0,0,0-8.39-.14c-2.34,1.16-3.79,3.78-3.3,6a3.91,3.91,0,0,0,2.1,2.49,2.9,2.9,0,0,0,2.41.17,2.82,2.82,0,0,1,2.42,5.1,8.36,8.36,0,0,1-7.31-.2,9.5,9.5,0,0,1-5.14-6.34A11.27,11.27,0,0,1,747.63,356.46Z" transform="translate(-539.67 -309.94)" style="fill:url(#linear-gradient-2)"/></svg>